<svg version="1.1" id="Layer_1" xmlns="http://www.w3.org/2000/svg" xmlns:xlink="http://www.w3.org/1999/xlink" x="0px" y="0px"
	 width="100%" viewBox="0 0 496 320" enable-background="new 0 0 496 320" xml:space="preserve">
<path fill="#000000" opacity="1.000000" stroke="none" 
	d="
M247.431396,271.309692 
	C225.535522,271.562103 204.082169,272.181244 182.644089,271.840271 
	C173.254654,271.690918 163.707016,271.371704 154.441147,271.568878 
	C142.744614,271.817780 130.990753,271.941315 119.266541,272.175385 
	C108.475014,272.390808 97.696793,270.767212 86.962296,270.958466 
	C75.752655,271.158142 64.836388,269.256683 53.810776,268.275208 
	C41.688019,267.195984 29.647125,265.282135 18.570225,259.427612 
	C12.247653,256.085876 10.579796,254.313171 10.864933,247.040543 
	C11.360038,234.412567 11.051135,221.745331 12.619352,209.167450 
	C12.742443,208.180191 12.577885,206.898209 13.131813,206.263855 
	C18.320946,200.321396 16.293346,193.388245 15.955974,186.708664 
	C15.191061,171.564255 19.938143,157.218903 22.199490,142.510956 
	C23.448057,134.390182 23.415625,126.146400 25.606461,118.074722 
	C28.236769,108.383888 32.832157,99.866936 38.714512,91.929977 
	C41.116734,88.688698 45.595970,88.688126 49.907848,91.869331 
	C55.804939,96.220070 61.378494,101.038658 67.461205,105.102119 
	C78.601387,112.544167 90.135803,119.165894 104.284546,118.702782 
	C109.865990,118.520103 115.257401,117.333878 120.335480,115.327637 
	C136.139542,109.083786 151.799408,102.473518 166.328140,93.519798 
	C171.588272,90.278099 171.817795,89.131790 166.881348,85.340958 
	C159.468430,79.648369 156.363327,72.693886 159.159210,63.524185 
	C159.558884,62.213428 159.509613,60.962788 159.257858,59.604050 
	C158.222198,54.014950 160.118225,51.513729 165.607941,51.855621 
	C171.409897,52.216953 176.798386,50.303921 182.324600,49.311058 
	C188.890610,48.131386 194.920013,49.243690 200.799652,51.838921 
	C208.980576,55.449940 216.097717,60.715855 222.264862,67.102448 
	C225.826828,70.791153 229.829575,73.582077 234.398941,75.692230 
	C240.670914,78.588661 246.410797,82.246918 250.862503,87.601097 
	C252.297791,89.327370 253.958282,89.841743 256.031006,90.083611 
	C258.851685,90.412758 262.037476,90.794075 263.305359,93.708420 
	C265.041443,97.698929 267.759430,99.567871 272.024384,99.976952 
	C273.726562,100.140228 276.037292,101.009972 276.839020,102.314980 
	C280.731781,108.651428 287.431213,108.317619 293.353516,109.760796 
	C297.548462,110.783058 301.315430,112.314445 303.535767,116.247353 
	C304.688202,118.288605 306.474731,118.918732 308.508789,119.867668 
	C316.696411,123.687355 326.425812,123.591133 333.581146,130.216583 
	C335.635834,132.119110 339.020081,133.275009 342.358612,131.189362 
	C345.287079,129.359863 348.336975,130.298706 350.566559,132.561523 
	C352.572662,134.597549 354.823730,135.423828 357.489899,136.084671 
	C364.070404,137.715698 370.106140,140.436935 373.964691,146.467972 
	C375.178284,148.364807 376.797211,149.592636 378.923828,150.413712 
	C403.614777,159.946609 429.305939,164.990112 455.532684,167.737350 
	C460.147491,168.220764 464.747681,169.017349 469.285858,169.990112 
	C471.825165,170.534424 473.410522,172.716736 474.923859,174.715027 
	C477.671173,178.342773 479.412201,182.507172 480.927673,186.741913 
	C482.488434,191.103165 484.307312,195.097229 487.249847,198.919403 
	C494.048706,207.750717 492.433258,221.154770 484.093567,229.536163 
	C476.307312,237.361389 466.737305,242.224136 456.353851,245.844894 
	C435.038513,253.277634 412.789764,256.626770 390.838409,261.273621 
	C376.194458,264.373566 361.301331,266.251587 346.411255,266.913483 
	C330.480560,267.621613 314.562134,268.580475 298.632233,269.294708 
	C285.689362,269.875031 272.755951,270.665710 259.813629,271.260651 
	C255.843796,271.443146 251.858383,271.287323 247.431396,271.309692 
M187.409683,220.696564 
	C201.135834,222.024170 214.841568,223.392792 228.642273,224.048599 
	C237.586166,224.473587 246.605072,224.023193 255.523758,225.539017 
	C264.983795,227.146835 273.239258,225.110977 280.718140,218.301468 
	C287.227875,212.374329 294.029480,206.722961 300.407104,200.632721 
	C307.657043,193.709488 312.330566,185.123932 315.780334,175.781143 
	C316.717957,173.241806 316.712830,171.280060 314.298340,169.739273 
	C302.166656,161.997513 289.630005,154.643478 275.262909,152.587555 
	C260.758057,150.511917 246.848511,147.201508 233.845337,140.438797 
	C230.909424,138.911880 228.821854,139.034851 226.497299,141.781677 
	C220.133057,149.302032 212.645889,155.681793 205.027420,161.902634 
	C199.040619,166.791138 193.326660,172.017746 186.210693,176.056900 
	C187.248215,177.001007 187.646652,177.667328 188.181412,177.805267 
	C198.477997,180.461563 208.800018,183.629639 219.559158,182.380341 
	C231.474609,180.996796 236.089691,175.619217 237.170441,163.430969 
	C237.479263,159.948135 237.890671,156.492783 237.338211,152.980225 
	C236.747177,149.222305 239.013870,147.823486 242.301529,147.781677 
	C244.186920,147.757675 245.761520,148.923737 247.236816,150.012741 
	C260.861298,160.069839 271.576233,171.905640 274.236725,189.664291 
	C276.058441,201.823929 270.846771,212.660934 259.457520,217.582748 
	C252.874588,220.427536 246.096008,220.028946 239.325790,218.827225 
	C215.502869,214.598587 192.446457,207.526779 169.703445,199.442184 
	C164.843643,197.714630 161.588867,198.486008 158.328140,202.327484 
	C155.132553,206.092209 152.512634,210.538849 147.860214,212.852478 
	C146.415649,213.570831 145.085999,214.346329 145.303024,216.104675 
	C145.576401,218.319580 147.463104,218.294037 149.142914,218.396103 
	C161.588303,219.152328 174.033859,219.906189 187.409683,220.696564 
M90.581451,169.960632 
	C88.700394,169.293289 86.834579,168.578598 84.935562,167.967010 
	C77.559616,165.591522 66.576866,171.418869 65.267555,179.005753 
	C64.352264,184.309448 61.310989,186.823441 56.757710,188.251724 
	C53.112671,189.395142 49.329250,190.113144 45.718353,191.345505 
	C41.578270,192.758453 38.836815,197.504501 39.145000,202.067963 
	C39.488148,207.149017 41.736195,209.666504 47.223396,210.561813 
	C52.462440,211.416626 57.730213,212.216553 63.017460,212.633453 
	C84.551308,214.331345 106.099907,215.841278 127.637794,217.489319 
	C135.184662,218.066803 138.327499,217.016479 140.459885,211.792191 
	C142.324768,207.223312 143.780716,202.425171 144.801300,197.598068 
	C145.386276,194.831268 145.749832,191.420364 142.291763,189.687042 
	C137.250900,187.160339 132.376785,184.008484 127.045563,182.412689 
	C114.969780,178.798050 103.635910,173.058487 90.581451,169.960632 
M419.773071,185.976578 
	C431.925171,184.203293 444.245697,183.385880 456.069031,179.749008 
	C457.965363,179.165695 460.863708,179.136414 460.460785,176.018326 
	C460.111237,173.313446 457.596771,173.024277 455.475220,172.693954 
	C448.417938,171.595215 441.328369,170.698639 434.280792,169.543884 
	C418.385223,166.939346 402.661743,163.579681 387.328674,158.545990 
	C383.593994,157.319962 380.815277,158.018936 379.913452,162.503723 
	C379.124542,166.427139 377.714111,170.168442 375.777496,173.700119 
	C372.177979,180.264297 368.554962,186.816986 365.069458,193.441650 
	C363.679138,196.084167 362.043823,199.040390 364.982605,201.642883 
	C367.668396,204.021362 370.725677,203.102173 373.338654,201.447906 
	C387.295044,192.612137 403.060333,189.265854 419.773071,185.976578 
M56.663712,130.070282 
	C57.256260,130.639847 57.751637,131.413803 58.455807,131.748581 
	C70.632805,137.537735 83.221039,142.341339 95.767006,147.246780 
	C97.679230,147.994461 99.370949,147.284317 101.063622,146.606934 
	C137.678268,131.954483 172.413605,113.871597 204.046844,90.134361 
	C204.961365,89.448120 206.072006,88.917297 206.281113,87.420708 
	C205.361069,85.341110 203.700317,85.657471 201.753357,85.947472 
	C195.431839,86.889053 190.309570,90.247757 185.186035,93.694862 
	C168.905884,104.648117 152.638504,115.386536 134.039963,122.497658 
	C112.979904,130.549911 92.364273,133.250275 71.122299,123.980301 
	C67.007759,122.184715 58.852909,125.461647 56.663712,130.070282 
M170.674042,183.208511 
	C173.457581,180.765823 173.501678,178.822037 169.673233,177.527649 
	C149.504181,170.708435 129.356812,163.824310 109.158119,157.094162 
	C104.079353,155.401932 98.758858,154.905899 93.389023,155.248138 
	C90.897774,155.406937 89.376610,156.640305 88.944839,159.146957 
	C88.506081,161.694183 90.556747,162.202118 92.157387,162.897583 
	C111.699898,171.388687 131.447769,179.394028 151.696228,186.025314 
	C157.841431,188.037857 164.508957,188.601013 170.674042,183.208511 
M144.657455,164.767822 
	C150.986404,166.800217 157.345016,168.746078 163.632370,170.899887 
	C166.997803,172.052750 168.517532,171.362152 169.703796,167.683304 
	C170.873032,164.057297 170.163284,159.027527 175.540436,157.520950 
	C177.849792,156.873901 179.849976,155.174103 179.229980,152.367584 
	C178.612625,149.573059 175.954773,150.103455 173.891464,149.753860 
	C167.921066,148.742310 161.642349,149.654449 156.209503,145.571091 
	C150.730576,141.453110 145.323471,142.455963 140.796631,147.720825 
	C138.947647,149.871231 137.331665,152.146194 134.461548,153.137299 
	C132.553116,153.796310 132.422501,155.080032 132.973907,157.114502 
	C134.538818,162.888214 140.067780,162.394104 144.657455,164.767822 
M317.250763,210.648911 
	C316.663666,211.236023 315.995850,211.762772 315.503571,212.420807 
	C313.456726,215.156876 310.330536,217.639008 312.271271,221.655304 
	C314.165833,225.576035 317.997162,225.872604 321.694153,225.936157 
	C327.849701,226.042023 334.011169,226.041687 340.165619,225.895706 
	C344.639557,225.789551 349.150146,225.819855 353.444397,224.107117 
	C356.194733,223.010178 358.179749,221.327377 357.659088,218.196472 
	C356.596985,211.810196 347.565857,203.948318 341.253204,204.176895 
	C333.054535,204.473770 325.000519,205.721329 317.250763,210.648911 
M184.988907,63.857574 
	C190.938171,68.030052 196.531052,73.177711 203.743744,74.729622 
	C210.515915,76.186760 216.215378,78.912544 221.185638,83.609627 
	C224.560074,86.798584 228.154602,89.756744 231.686707,92.776016 
	C233.914627,94.680458 241.812851,94.266174 243.636856,92.204514 
	C244.813004,90.875092 244.062714,89.735962 243.235443,88.648605 
	C241.110794,85.855919 238.761459,83.409607 235.527725,81.738190 
	C230.391907,79.083641 224.825714,77.033150 220.875214,72.480591 
	C217.021439,68.039490 212.238449,64.735718 207.485672,61.368874 
	C204.319839,59.126213 201.391006,57.377342 197.715942,60.579174 
	C196.114838,61.974117 193.937714,61.191841 191.942413,60.936783 
	C189.266769,60.594761 186.235184,59.641449 184.988907,63.857574 
M27.352482,163.998947 
	C28.447510,165.555481 30.101307,164.835785 31.468769,164.862061 
	C40.090473,165.027679 48.456909,163.152527 56.799980,161.307632 
	C58.335823,160.968018 60.972733,161.353027 60.990665,158.737122 
	C61.004887,156.663559 59.015297,155.730820 57.413441,154.948776 
	C50.113003,151.384766 42.786285,147.870483 35.403465,144.481110 
	C31.921202,142.882446 27.475252,145.281921 26.746113,149.101212 
	C25.956263,153.238480 23.240021,157.631699 28.091496,161.249084 
	C28.724964,161.721390 27.895979,162.764359 27.352482,163.998947 
M238.878830,101.505203 
	C235.583649,103.919258 231.516312,104.543350 227.919724,106.248367 
	C226.343491,106.995605 224.984222,108.213249 225.741074,110.178696 
	C226.398056,111.884781 228.125336,111.930344 229.613632,111.646744 
	C239.021317,109.854080 248.112396,107.213120 255.565796,100.792442 
	C257.285004,99.311440 259.444092,97.497940 257.800537,94.882645 
	C256.251465,92.417702 253.733246,93.130310 251.479980,93.950821 
	C247.034561,95.569595 243.444336,98.638283 238.878830,101.505203 
M248.078781,119.320442 
	C249.088409,123.987282 251.984680,122.518829 254.454025,121.039795 
	C259.462250,118.040070 263.603943,113.928299 267.757507,109.877090 
	C269.328766,108.344566 272.100739,106.743752 269.961304,104.206459 
	C268.112213,102.013474 265.333160,102.756424 263.137726,104.224998 
	C259.836182,106.433487 256.732208,108.937889 253.424530,111.136398 
	C250.661652,112.972816 248.705780,115.253822 248.078781,119.320442 
M338.330902,140.822678 
	C336.841431,144.615585 331.453735,148.001038 336.098663,152.486771 
	C338.315277,154.627396 345.486755,149.921188 346.985992,145.032486 
	C348.006500,141.704865 350.799896,136.985291 346.778961,134.735626 
	C342.516815,132.351028 340.916443,137.520355 338.330902,140.822678 
M294.041656,113.592293 
	C285.495392,115.912956 276.405731,125.547218 276.467743,132.292633 
	C278.073730,133.128754 279.268890,132.134888 280.554810,131.385162 
	C286.728821,127.785500 289.478516,120.665085 295.539307,116.885063 
	C297.130768,115.892479 295.860718,114.575623 294.041656,113.592293 
M316.676788,136.160187 
	C318.520599,135.037247 320.362946,133.911804 322.208801,132.792252 
	C323.337311,132.107773 324.875031,131.497482 324.421539,129.895920 
	C323.898499,128.048813 322.167389,127.587242 320.416351,127.612801 
	C314.863922,127.693848 306.049805,135.250534 304.605408,141.555679 
	C309.468079,141.982040 312.411530,138.351120 316.676788,136.160187 
M362.872406,157.396713 
	C366.028778,155.729813 369.070007,154.028473 368.982483,149.714218 
	C368.932159,147.234756 367.890930,145.482529 365.598267,144.727295 
	C362.956085,143.856949 361.951874,146.175949 361.192963,147.815689 
	C360.235626,149.884216 359.839752,152.254547 359.465302,154.537903 
	C359.153473,156.439514 359.797791,157.883102 362.872406,157.396713 
M171.232193,78.994614 
	C171.180695,80.408813 171.754074,81.593353 172.773209,82.490074 
	C173.768723,83.366013 175.012802,84.304573 176.213409,82.999146 
	C177.343430,81.770470 176.710556,80.414322 175.539307,79.619026 
	C174.348785,78.810638 173.381851,76.741608 171.232193,78.994614 
z"/>
</svg>